HIERARCHY
ROOT root
{
	OFFSET	0	13.1	24.9
	CHANNELS 6  Xposition Yposition Zposition Xrotation Yrotation Zrotation
	JOINT spine_1
	{
		OFFSET	0	9.99999	0
		CHANNELS 3  Xrotation Yrotation Zrotation
		JOINT spine_2
		{
			OFFSET	0	112	-10
			CHANNELS 3  Xrotation Yrotation Zrotation
			JOINT spine_3
			{
				OFFSET	0	206.5	19.3
				CHANNELS 3  Xrotation Yrotation Zrotation
				JOINT spine_4
				{
					OFFSET	0	110.4	14.6
					CHANNELS 3  Xrotation Yrotation Zrotation
					JOINT neck_1
					{
						OFFSET	0	71.8	-50.3
						CHANNELS 3  Xrotation Yrotation Zrotation
						JOINT neck_2
						{
							OFFSET	0	86.2	-25.8
							CHANNELS 3  Xrotation Yrotation Zrotation
							JOINT head_ee
							{
								OFFSET	0	179.8	-8.7
								CHANNELS 3  Xrotation Yrotation Zrotation
								End Site
								{
									OFFSET	1	0	0
								}
							}
						}
					}
					JOINT left_clavicle
					{
						OFFSET	-43.2	22.4	-70.8
						CHANNELS 3  Xrotation Yrotation Zrotation
						JOINT left_shoulder
						{
							OFFSET	-93.9	-5.79999	48.7
							CHANNELS 3  Xrotation Yrotation Zrotation
							JOINT left_elbow
							{
								OFFSET	-291.4	-30.8	15.2
								CHANNELS 3  Xrotation Yrotation Zrotation
								JOINT left_lowarm_twist
								{
									OFFSET	-110.7	-3.89999	13.6
									CHANNELS 3  Xrotation Yrotation Zrotation
									JOINT left_hand
									{
										OFFSET	-110.7	-3.89999	13.6
										CHANNELS 3  Xrotation Yrotation Zrotation
										JOINT left_ee
										{
											OFFSET	-80.8	-5.10001	12.1
											CHANNELS 3  Xrotation Yrotation Zrotation
											End Site
											{
												OFFSET	1	0	0
											}
										}
									}
								}
							}
						}
					}
					JOINT right_clavicle
					{
						OFFSET	43.2	22.4	-70.8
						CHANNELS 3  Xrotation Yrotation Zrotation
						JOINT right_shoulder
						{
							OFFSET	93.9	-5.79999	48.7
							CHANNELS 3  Xrotation Yrotation Zrotation
							JOINT right_elbow
							{
								OFFSET	291.4	-30.8	15.2
								CHANNELS 3  Xrotation Yrotation Zrotation
								JOINT right_lowarm_twist
								{
									OFFSET	110.7	-3.89999	13.6
									CHANNELS 3  Xrotation Yrotation Zrotation
									JOINT right_hand
									{
										OFFSET	110.7	-3.89999	13.6
										CHANNELS 3  Xrotation Yrotation Zrotation
										JOINT right_ee
										{
											OFFSET	80.8	-5.10001	12.1
											CHANNELS 3  Xrotation Yrotation Zrotation
											End Site
											{
												OFFSET	1	0	0
											}
										}
									}
								}
							}
						}
					}
				}
			}
		}
	}
	JOINT left_hip
	{
		OFFSET	-82.8	-127.5	0.300001
		CHANNELS 3  Xrotation Yrotation Zrotation
		JOINT left_knee
		{
			OFFSET	-28.2	-396.7	2.2
			CHANNELS 3  Xrotation Yrotation Zrotation
			JOINT left_ankle
			{
				OFFSET	-11.7	-411.3	35.4
				CHANNELS 3  Xrotation Yrotation Zrotation
				JOINT left_toes
				{
					OFFSET	0	-60	-88.6
					CHANNELS 3  Xrotation Yrotation Zrotation
					JOINT left_foot_ee
					{
						OFFSET	-22.5	-16.5	-42.2
						CHANNELS 3  Xrotation Yrotation Zrotation
						End Site
						{
							OFFSET	1	0	0
						}
					}
				}
			}
		}
	}
	JOINT right_hip
	{
		OFFSET	82.8	-127.5	0.300001
		CHANNELS 3  Xrotation Yrotation Zrotation
		JOINT right_knee
		{
			OFFSET	28.2	-396.7	2.2
			CHANNELS 3  Xrotation Yrotation Zrotation
			JOINT right_ankle
			{
				OFFSET	11.7	-411.3	35.4
				CHANNELS 3  Xrotation Yrotation Zrotation
				JOINT right_toes
				{
					OFFSET	0	-60	-88.6
					CHANNELS 3  Xrotation Yrotation Zrotation
					JOINT right_foot_ee
					{
						OFFSET	22.5	-16.5	-42.2
						CHANNELS 3  Xrotation Yrotation Zrotation
						End Site
						{
							OFFSET	1	0	0
						}
					}
				}
			}
		}
	}
}
MOTION
Frames: 9
Frame Time: 0.02
2116.27 693.35 -525.088 177.704 -67.5544 -179.535 1.64199 0.0986699 -0.853031 1.64238 0.152748 -0.845024 1.6401 0.304105 -0.803071 1.63925 0.173463 -0.841017 -17.6487 18.5132 8.11107 -18.6998 31.2251 14.9342 -0.0 0.0 -0.0 3.7246 24.0704 7.83463 -35.4175 -11.282 65.3599 0.809886 -21.8602 0.156403 -15.0845 -0.768498 1.76349 1.66252 15.6639 16.9158 -0.0 0.0 -0.0 10.274 14.883 -20.3078 0.408247 48.2311 -52.5437 1.58204 38.0829 -0.546052 -7.67122 0.332593 -0.921841 -1.55139 13.4797 16.3776 0.0 0.0 0.0 24.0719 3.71389 -13.8093 0.190091 -0.00787436 -0.0281081 -10.1853 28.8861 1.61837 -22.0346 0.0 0.0 -0.0 0.0 -0.0 -6.6485 27.8429 -4.36716 -27.9235 -0.117983 -4.24135 31.7905 11.4466 4.2703 -17.8561 0.0 0.0 0.0 0.0 0.0 
2137.49 690.781 -530.61 178.453 -66.9457 -178.297 1.67152 0.114146 -0.912308 1.67197 0.171965 -0.903197 1.66922 0.333165 -0.856938 1.66825 0.193652 -0.898797 -17.3822 18.7031 9.29148 -18.3015 30.903 15.9672 -0.0 0.0 -0.0 3.50256 24.367 7.5323 -34.8515 -10.979 65.5846 0.863828 -23.1666 0.177059 -15.8335 -0.818533 1.84527 1.5615 15.711 16.277 -0.0 0.0 -0.0 10.3755 14.4614 -20.5507 -1.02742 47.8432 -52.4301 1.63981 39.0844 -0.582084 -8.12385 0.356047 -0.974766 -1.24438 14.6592 14.7378 0.0 0.0 0.0 25.2641 3.91095 -13.8396 -5.25172 0.180325 0.785531 -6.78487 28.9848 1.07371 -17.8553 0.0 0.0 -0.0 0.0 -0.0 -8.05976 28.3057 -3.9436 -26.6963 -0.15636 -4.05693 30.2592 8.57989 4.04719 -18.0097 0.0 0.0 0.0 0.0 0.0 
2159.95 691.108 -536.073 177.457 -66.7441 -179.529 1.76854 0.018089 -0.946777 1.76903 0.0782955 -0.943708 1.76772 0.246832 -0.914217 1.76657 0.0993573 -0.941723 -18.7357 19.1169 12.4128 -19.5347 30.3614 19.3485 -0.0 0.0 -0.0 3.60099 23.7402 7.66452 -33.6111 -11.3157 66.0004 0.906516 -24.1827 0.194201 -16.0665 -0.834317 1.87058 1.51239 15.6535 15.9408 -0.0 0.0 -0.0 10.2166 15.0171 -20.1742 -3.51362 47.3724 -51.4603 1.67069 39.6082 -0.601657 -9.32866 0.420512 -1.11474 -0.679096 16.0825 11.4492 0.0 0.0 0.0 26.4459 3.75879 -13.2523 -10.497 0.287864 1.58299 -5.6342 28.9252 0.889661 -15.3287 0.0 0.0 -0.0 0.0 -0.0 -10.882 28.5955 -2.76093 -25.426 -0.191915 -3.86522 28.7829 6.08682 3.8451 -18.0587 0.0 0.0 0.0 0.0 0.0 
2181.33 690.76 -539.327 177.336 -66.5656 -179.433 1.75553 -0.070675 -0.983158 1.75607 -0.00797398 -0.985662 1.75621 0.169705 -0.970977 1.75489 0.0142353 -0.985592 -18.7507 19.4138 13.1254 -19.5102 30.5721 20.1115 -0.0 0.0 -0.0 3.44157 23.2938 7.44122 -32.5894 -11.7904 66.2483 1.1043 -28.6796 0.282308 -16.0654 -0.834246 1.87046 1.50501 14.81 15.6107 -0.0 0.0 -0.0 10.0549 15.0605 -19.8123 -5.22203 47.4343 -51.1635 1.72162 40.4554 -0.63442 -9.65615 0.438543 -1.15255 -0.394465 16.4978 9.68833 0.0 0.0 0.0 27.0559 3.411 -13.2864 -14.3119 0.320021 2.16732 -5.98577 28.9035 0.945577 -14.3212 0.0 0.0 -0.0 0.0 -0.0 -12.163 28.8959 -2.63475 -24.9858 -0.203243 -3.79861 25.1735 3.23513 3.40092 -18.5571 0.0 0.0 0.0 0.0 0.0 
2209.73 689.766 -548.861 176.425 -68.6094 179.472 1.95422 -0.220306 -1.25106 1.95508 -0.140258 -1.26254 1.95817 0.0849731 -1.26746 1.95595 -0.116248 -1.26497 -19.2358 19.5726 13.324 -20.0676 30.9067 20.5348 -0.0 0.0 -0.0 3.43422 22.1938 7.41965 -31.0433 -12.787 66.1643 1.26037 -31.9772 0.361147 -16.04 -0.83252 1.86771 1.54936 14.5383 15.807 -0.0 0.0 -0.0 9.42377 15.5277 -18.3919 -8.03084 46.9645 -50.4561 1.6323 38.9557 -0.57735 -11.1399 0.522941 -1.32256 0.278135 17.3522 5.51925 0.0 0.0 0.0 25.4418 2.7956 -10.7172 -16.3583 0.321223 2.48128 3.82422 28.5392 -0.590816 -11.6661 0.0 0.0 -0.0 0.0 -0.0 -12.9914 30.6559 -2.96821 -27.9275 -0.117852 -4.24195 21.6453 1.5888 2.9655 -18.3752 0.0 0.0 0.0 0.0 0.0 
2229.39 695.878 -550.821 174.541 -69.4602 177.659 1.83195 -0.351034 -1.27582 1.83281 -0.269146 -1.29557 1.83898 -0.0333332 -1.32281 1.83662 -0.24181 -1.30095 -19.4129 19.5336 13.3678 -20.257 30.8553 20.6179 -0.0 0.0 -0.0 3.5459 21.1604 7.56853 -29.0056 -13.7991 65.8019 1.16201 -29.9248 0.310552 -16.3799 -0.855712 1.90452 1.32926 14.8504 14.4891 -0.0 0.0 -0.0 9.16903 15.2325 -17.8444 -10.6982 46.5376 -50.3832 1.64269 39.1335 -0.583896 -12.6197 0.611483 -1.48992 0.646531 18.6937 3.63623 0.0 0.0 0.0 24.1328 2.62655 -9.77403 -17.6725 0.316082 2.68286 8.32504 26.9808 -1.25841 -11.1232 0.0 0.0 -0.0 0.0 -0.0 -12.2417 30.0951 -3.43674 -30.6499 -0.0186241 -4.64794 15.8647 1.28017 2.23138 -19.1091 0.0 0.0 0.0 0.0 0.0 
2254.35 703.202 -556.372 173.81 -71.3987 177.318 1.61319 -0.439435 -1.38254 1.61418 -0.350579 -1.4077 1.62298 -0.0879869 -1.44802 1.62019 -0.315547 -1.41596 -20.7114 19.6834 14.0986 -21.6768 31.1249 21.8062 -0.0 0.0 -0.0 3.62329 20.652 7.67624 -26.253 -15.5142 65.809 1.16907 -30.0751 0.314083 -17.4772 -0.932077 2.02244 1.21728 15.959 14.151 -0.0 0.0 -0.0 8.02526 14.0751 -15.4016 -12.0827 44.9762 -51.1083 1.7878 41.5251 -0.677832 -12.2158 0.586889 -1.44447 0.690653 19.217 3.56997 0.0 0.0 0.0 21.9992 0.158217 -8.13265 -16.2077 0.321517 2.45818 8.76473 27.5352 -1.32765 -10.693 0.0 0.0 -0.0 0.0 -0.0 -9.16115 31.2856 -5.6497 -33.858 0.122934 -5.11979 5.40216 1.41593 0.79027 -20.1252 0.0 0.0 0.0 0.0 0.0 
2273.63 705.085 -562.846 173.126 -74.1182 176.716 1.53953 -0.360775 -1.46393 1.54068 -0.266901 -1.48391 1.54778 0.0101951 -1.50768 1.54468 -0.228017 -1.49038 -21.2782 19.8386 14.2326 -22.3487 31.508 22.2246 -0.0 0.0 -0.0 3.7711 20.2506 7.89065 -23.3714 -17.1112 65.4785 1.10481 -28.6906 0.282551 -18.0769 -0.974767 2.08626 0.829181 16.3794 11.8414 -0.0 0.0 -0.0 6.80041 12.0331 -12.8701 -13.2496 43.5718 -51.8394 1.90147 43.2827 -0.754492 -15.2675 0.780625 -1.78353 1.31901 19.0785 -0.66275 0.0 0.0 0.0 20.7992 -1.04446 -6.2067 -14.8643 0.321451 2.25207 11.0197 27.2447 -1.65478 -9.07483 0.0 0.0 -0.0 0.0 -0.0 -6.14473 30.9961 -7.28029 -40.2555 0.483099 -6.034 1.30948 3.31807 0.195055 -20.0039 0.0 0.0 0.0 0.0 0.0 
2297.35 710.579 -564.469 172.52 -75.0939 176.469 1.43141 -0.226009 -1.62309 1.43286 -0.122284 -1.63418 1.43654 0.183178 -1.62848 1.43285 -0.0762731 -1.63697 -20.1986 21.8647 13.4014 -21.7111 35.56 22.206 -0.0 0.0 -0.0 3.76298 19.9682 7.87663 -21.2362 -18.7548 64.9745 1.03009 -27.0335 0.247627 -19.6821 -1.09231 2.2549 0.445653 17.5527 9.87536 -0.0 0.0 -0.0 6.1809 9.22935 -11.6969 -13.8725 42.6624 -53.6048 1.79301 41.6078 -0.68129 -17.2503 0.916103 -1.99818 1.26101 18.3647 -0.595972 0.0 0.0 0.0 17.9004 -4.98728 -5.49882 -13.5724 0.316829 2.05392 14.3431 25.5557 -2.10891 -9.04984 0.0 0.0 -0.0 0.0 -0.0 -2.39909 32.1775 -10.1443 -43.8117 0.726903 -6.52347 -10.9661 2.08644 -1.66638 -21.6447 0.0 0.0 0.0 0.0 0.0 
